<?xml version="1.0" encoding="UTF-8"?>
<svg id="Camada_1" data-name="Camada 1" xmlns="http://www.w3.org/2000/svg" viewBox="0 0 1920 300">
  <defs>
    <style>
      .cls-1 {
        fill: #f57c00;
      }

      .cls-2 {
        fill: none;
      }

      .cls-3 {
        fill: #1d1d1b;
      }

      .cls-4 {
        fill: #00577a;
      }
    </style>
  </defs>
  <g>
    <path class="cls-3" d="M38.31,235.29v-19.04h98.61c7.17,0,13.07-1.32,17.7-3.95,4.63-2.63,6.95-7,6.95-13.09s-2.32-10.46-6.95-13.09c-4.63-2.63-10.53-3.95-17.7-3.95h-59.87c-8.25,0-15.67-1.11-22.27-3.33-6.6-2.22-11.82-5.87-15.66-10.95-3.84-5.08-5.76-11.87-5.76-20.37s1.92-15.24,5.76-20.23c3.84-4.98,9.06-8.53,15.66-10.66,6.6-2.13,14.02-3.19,22.27-3.19h99.19v19.04h-101.66c-6.54,0-11.79,1.28-15.75,3.85-3.97,2.57-5.95,6.3-5.95,11.18s1.98,8.63,5.95,11.23c3.96,2.6,9.22,3.9,15.75,3.9h60.44c8.44,0,16.15,1.21,23.13,3.62,6.98,2.41,12.55,6.28,16.71,11.61,4.16,5.33,6.23,12.44,6.23,21.32s-2.08,15.88-6.23,21.18c-4.16,5.3-9.73,9.11-16.71,11.42-6.98,2.32-14.69,3.47-23.13,3.47H38.31Z"/>
    <path class="cls-3" d="M204.82,235.29c-7.93,0-15.22-1.38-21.85-4.14-6.63-2.76-11.93-6.91-15.9-12.47-3.97-5.55-5.95-12.45-5.95-20.7s1.98-15.2,5.95-20.66c3.96-5.46,9.31-9.55,16.04-12.28,6.73-2.73,14.18-4.09,22.37-4.09h73.39v-2.38c0-7.36-2.7-13.55-8.09-18.56-5.39-5.01-13.99-7.52-25.8-7.52h-76.53v-19.04h76.53c10.85,0,20.28,1.94,28.27,5.81,8,3.87,14.18,9.19,18.56,15.94,4.38,6.76,6.57,14.55,6.57,23.37v76.72h-19.51v-11.8h-1.9c-2.92,3.05-6.08,5.43-9.47,7.14-3.4,1.71-6.96,2.92-10.71,3.62-3.75.7-7.68,1.05-11.8,1.05h-40.17ZM244.98,216.25c11.8,0,20.4-2.62,25.8-7.85,5.39-5.23,8.09-12.1,8.09-20.61v-7.81h-74.34c-7.42,0-13.26,1.57-17.51,4.71-4.25,3.14-6.38,7.57-6.38,13.28s2.09,10.27,6.28,13.47c4.19,3.2,9.74,4.81,16.66,4.81h41.41Z"/>
    <path class="cls-3" d="M278.62,235.29v-121.84h20.71v11.71h1.9c2.98-2.98,6.15-5.33,9.52-7.04,3.36-1.71,6.92-2.92,10.66-3.62,3.74-.7,7.68-1.05,11.8-1.05h25.61c9.45,0,17.81,1.52,25.08,4.57,7.27,3.05,13.12,7.49,17.56,13.33h1.9c4.51-5.84,10.39-10.28,17.66-13.33,7.27-3.05,15.63-4.57,25.08-4.57h25.51c10.85,0,20.28,1.97,28.27,5.9,8,3.94,14.18,9.46,18.56,16.56,4.38,7.11,6.57,15.45,6.57,25.03v74.34h-19.51v-74.34c0-8.5-2.68-15.37-8.04-20.61-5.36-5.24-13.98-7.85-25.84-7.85h-25.51c-11.87,0-20.48,2.62-25.84,7.85-5.36,5.24-8.04,12.11-8.04,20.61v74.34h-19.51v-74.34c0-8.5-2.7-15.37-8.09-20.61-5.39-5.24-13.99-7.85-25.8-7.85h-25.61c-11.8,0-20.4,2.62-25.8,7.85-5.39,5.24-8.09,12.11-8.09,20.61v74.34h-20.71Z"/>
    <path class="cls-3" d="M505.15,235.29V64.71h19.42v60.44h1.9c2.98-2.98,6.15-5.33,9.52-7.04,3.36-1.71,6.92-2.92,10.66-3.62,3.74-.7,7.68-1.05,11.8-1.05h25.89c13.01,0,24.27,2.25,33.79,6.76,9.52,4.51,16.9,11.27,22.13,20.28,5.24,9.01,7.85,20.31,7.85,33.89s-2.62,24.88-7.85,33.89c-5.24,9.01-12.61,15.77-22.13,20.28-9.52,4.51-20.78,6.76-33.79,6.76h-25.89c-4.13,0-8.06-.35-11.8-1.05-3.74-.7-7.3-1.9-10.66-3.62-3.36-1.71-6.54-4.06-9.52-7.04h-1.9v11.71h-19.42ZM584.34,216.25c29.57,0,44.36-13.96,44.36-41.88s-14.79-41.88-44.36-41.88h-25.89c-11.8,0-20.4,2.62-25.8,7.85-5.39,5.24-8.09,12.11-8.09,20.61v26.84c0,8.5,2.7,15.37,8.09,20.61,5.39,5.23,13.99,7.85,25.8,7.85h25.89Z"/>
    <path class="cls-3" d="M669.88,235.29c-7.93,0-15.22-1.38-21.85-4.14-6.63-2.76-11.93-6.91-15.9-12.47-3.97-5.55-5.95-12.45-5.95-20.7s1.98-15.2,5.95-20.66c3.96-5.46,9.31-9.55,16.04-12.28,6.73-2.73,14.18-4.09,22.37-4.09h73.39v-2.38c0-7.36-2.7-13.55-8.09-18.56-5.39-5.01-13.99-7.52-25.8-7.52h-94.52l-26.88-19.04h121.4c10.85,0,20.28,1.94,28.27,5.81,8,3.87,14.18,9.19,18.56,15.94,4.38,6.76,6.57,14.55,6.57,23.37v76.72h-19.51v-11.8h-1.9c-2.92,3.05-6.08,5.43-9.47,7.14-3.4,1.71-6.96,2.92-10.71,3.62-3.75.7-7.68,1.05-11.8,1.05h-40.17ZM710.04,216.25c11.8,0,20.4-2.62,25.8-7.85,5.39-5.23,8.09-12.1,8.09-20.61v-7.81h-74.34c-7.42,0-13.26,1.57-17.51,4.71-4.25,3.14-6.38,7.57-6.38,13.28s2.09,10.27,6.28,13.47c4.19,3.2,9.74,4.81,16.66,4.81h41.41Z"/>
  </g>
  <g>
    <path class="cls-4" d="M1160.14,231.87c-12.09,0-22.61-2.1-31.56-6.31-8.95-4.21-15.87-10.52-20.76-18.94-4.89-8.42-7.33-18.97-7.33-31.65s2.44-23.24,7.33-31.65c4.89-8.42,11.81-14.73,20.76-18.94,8.95-4.21,19.47-6.31,31.56-6.31h25.52c12.15,0,22.69,2.1,31.61,6.31,8.92,4.21,15.83,10.52,20.72,18.94,4.89,8.42,7.33,18.97,7.33,31.65v5.25h-126.43c1.84,22.58,15.59,33.88,41.26,33.88h77.89v17.78h-77.89ZM1225.75,162.43c-4.03-17.72-17.4-26.58-40.1-26.58h-25.52c-22.76,0-36.16,8.86-40.19,26.58h105.8Z"/>
    <path class="cls-3" d="M1286.89,231.87c-12.09,0-22.61-2.1-31.56-6.31-8.95-4.21-15.87-10.52-20.76-18.94-4.89-8.42-7.33-18.97-7.33-31.65s2.44-23.24,7.33-31.65c4.89-8.42,11.81-14.73,20.76-18.94,8.95-4.21,19.47-6.31,31.56-6.31h24.1c3.85,0,7.53.33,11.02.98,3.5.65,6.83,1.78,10,3.38,3.17,1.6,6.12,3.82,8.85,6.67h1.78v-56.55h18.23v159.33h-18.23v-11.03h-1.78c-2.73,2.79-5.68,4.99-8.85,6.62-3.17,1.63-6.51,2.77-10,3.42-3.5.65-7.17.98-11.02.98h-24.1ZM1310.98,214.09c11.08,0,19.13-2.45,24.14-7.34,5.01-4.89,7.51-11.31,7.51-19.25v-25.07c0-7.94-2.5-14.36-7.51-19.25-5.01-4.89-13.06-7.34-24.14-7.34h-24.1c-27.62,0-41.43,13.04-41.43,39.12s13.81,39.12,41.43,39.12h24.1Z"/>
    <path class="cls-3" d="M1397.26,231.87l-54.63-113.81h18.21l38.92,82.33c.99,2.02,1.86,4,2.62,5.96.75,1.96,1.35,3.68,1.8,5.16.44,1.48.66,2.49.66,3.02h1.56c0-.53.22-1.54.66-3.02.44-1.48,1.04-3.2,1.8-5.16.75-1.96,1.6-3.94,2.54-5.96l38.29-82.33h17.82l-54.24,113.81h-16.02Z"/>
    <path class="cls-3" d="M1483.85,231.87c-7.41,0-14.21-1.29-20.41-3.87-6.2-2.58-11.14-6.46-14.85-11.65-3.7-5.19-5.56-11.63-5.56-19.34s1.85-14.2,5.56-19.29c3.7-5.1,8.7-8.92,14.98-11.47,6.28-2.55,13.25-3.82,20.89-3.82h68.55v-2.22c0-6.88-2.52-12.65-7.56-17.34-5.04-4.68-13.07-7.02-24.1-7.02h-71.49v-17.78h71.49c10.14,0,18.94,1.81,26.41,5.42,7.47,3.62,13.25,8.58,17.34,14.89s6.14,13.59,6.14,21.83v71.66h-18.23v-11.03h-1.78c-2.73,2.85-5.68,5.07-8.85,6.67-3.17,1.6-6.51,2.73-10,3.38-3.5.65-7.17.98-11.03.98h-37.52ZM1521.37,214.09c11.03,0,19.06-2.45,24.1-7.34,5.04-4.89,7.56-11.31,7.56-19.25v-7.29h-69.44c-6.94,0-12.39,1.47-16.36,4.4-3.97,2.93-5.96,7.07-5.96,12.4s1.96,9.59,5.87,12.58c3.91,2.99,9.1,4.49,15.56,4.49h38.68Z"/>
    <path class="cls-3" d="M1553.02,231.87v-113.81h18.14v10.94h1.78c2.79-2.79,5.75-4.98,8.89-6.58,3.14-1.6,6.46-2.73,9.96-3.38,3.5-.65,7.17-.98,11.02-.98h32.99c10.14,0,18.94,1.84,26.41,5.51,7.47,3.68,13.25,8.83,17.34,15.47,4.09,6.64,6.14,14.43,6.14,23.38v69.44h-18.23v-69.44c0-7.94-2.5-14.36-7.51-19.25-5.01-4.89-13.06-7.34-24.14-7.34h-32.99c-11.02,0-19.06,2.45-24.1,7.34-5.04,4.89-7.56,11.31-7.56,19.25v69.44h-18.14Z"/>
    <path class="cls-3" d="M1729.76,231.87c-12.86,0-23.93-2.1-33.21-6.31-9.28-4.21-16.39-10.52-21.34-18.94-4.95-8.42-7.42-18.97-7.42-31.65s2.47-23.24,7.42-31.65c4.95-8.42,12.06-14.73,21.34-18.94,9.28-4.21,20.35-6.31,33.21-6.31h69.17v17.78h-69.17c-14.82,0-25.81,3.22-32.99,9.65-7.17,6.43-10.76,16.26-10.76,29.47s3.59,22.82,10.76,29.34c7.17,6.52,18.17,9.78,32.99,9.78h69.17v17.78h-69.17Z"/>
    <path class="cls-4" d="M1801.46,231.87c-12.09,0-22.61-2.1-31.56-6.31-8.95-4.21-15.87-10.52-20.76-18.94-4.89-8.42-7.33-18.97-7.33-31.65s2.44-23.24,7.33-31.65c4.89-8.42,11.81-14.73,20.76-18.94,8.95-4.21,19.47-6.31,31.56-6.31h25.52c12.15,0,22.69,2.1,31.61,6.31,8.92,4.21,15.83,10.52,20.72,18.94,4.89,8.42,7.33,18.97,7.33,31.65v5.25h-126.43c1.84,22.58,15.59,33.88,41.26,33.88h77.89v17.78h-77.89ZM1867.08,162.43c-4.03-17.72-17.4-26.58-40.1-26.58h-25.52c-22.76,0-36.16,8.86-40.19,26.58h105.8Z"/>
  </g>
  <g>
    <path class="cls-2" d="M979.15,117.32h-33.55c-29.93,0-47.55,11.65-52.85,34.96h139.13c-5.3-23.3-22.88-34.96-52.73-34.96Z"/>
    <path class="cls-2" d="M967.17,199.28c0-7.48-2.85-12.84-8.53-16.08-5.69-3.23-12.94-4.85-21.75-4.85h-45.28c3.11,26.48,19.48,40.39,49.1,41.74,7.1-.41,13.08-1.98,17.93-4.73,5.69-3.23,8.53-8.59,8.53-16.08Z"/>
    <path class="cls-2" d="M840.96,122.06c-4.87,3.16-7.31,7.74-7.31,13.74s2.44,10.6,7.31,13.8c4.87,3.2,11.32,4.79,19.35,4.79h7.72c1.36-10.44,4.27-19.53,8.76-27.24,2.07-3.56,4.42-6.83,7.04-9.82h-23.52c-8.03,0-14.48,1.58-19.35,4.73Z"/>
    <path class="cls-4" d="M883.83,220.21h-68.06v23.38h118.79c1.73,0,3.42-.05,5.1-.13-13.43-.61-25.29-3.33-35.57-8.17-7.98-3.75-14.73-8.78-20.26-15.08Z"/>
    <path class="cls-4" d="M891.61,178.35h45.28c8.81,0,16.05,1.62,21.75,4.85,5.69,3.23,8.53,8.59,8.53,16.08s-2.85,12.84-8.53,16.08c-4.84,2.75-10.83,4.32-17.93,4.73,1.59.07,3.21.12,4.88.12h41.13c2.94-5.73,4.42-12.7,4.42-20.93,0-9.54-1.95-17.41-5.86-23.62h-93.94c.07.91.16,1.81.27,2.69Z"/>
    <path class="cls-4" d="M868.03,154.38h-7.72c-8.03,0-14.48-1.6-19.35-4.79-4.87-3.19-7.31-7.79-7.31-13.8s2.44-10.58,7.31-13.74c4.87-3.16,11.32-4.73,19.35-4.73h23.52c5.53-6.3,12.28-11.33,20.26-15.08,11.77-5.53,25.6-8.3,41.5-8.3h-82.24c-10.13,0-19.25,1.31-27.36,3.92-8.11,2.61-14.52,6.98-19.23,13.09-4.72,6.12-7.07,14.4-7.07,24.84s2.36,18.79,7.07,25.02c4.71,6.24,11.12,10.72,19.23,13.45,8.11,2.73,17.23,4.09,27.36,4.09h4.18c-.25-3.09-.38-6.28-.38-9.59,0-5.05.3-9.84.89-14.38Z"/>
    <path class="cls-4" d="M985.18,93.94h-6.03c2.05,0,4.05.05,6.03.14v-.14Z"/>
    <path class="cls-4" d="M1020.71,102.24c-10.23-4.82-22.08-7.55-35.53-8.16-1.98-.09-3.99-.14-6.03-.14h-33.55c-15.9,0-29.74,2.77-41.5,8.3-7.98,3.75-14.73,8.78-20.26,15.08-2.62,2.99-4.97,6.26-7.04,9.82-4.48,7.72-7.4,16.8-8.76,27.24-.59,4.54-.89,9.33-.89,14.38,0,3.31.13,6.5.38,9.59,1.02,12.48,4.11,23.16,9.26,32.03,2.07,3.56,4.42,6.83,7.04,9.82,5.53,6.3,12.28,11.33,20.26,15.08,10.28,4.84,22.14,7.56,35.57,8.17,1.95.09,3.92.13,5.93.13h102.42v-23.38h-102.42c-1.67,0-3.29-.05-4.88-.12-29.62-1.35-46-15.26-49.1-41.74-.1-.88-.19-1.78-.27-2.69h166.25v-6.9c0-16.68-3.21-30.55-9.65-41.62-6.43-11.07-15.51-19.37-27.24-24.9ZM892.75,152.28c5.3-23.3,22.92-34.96,52.85-34.96h33.55c29.85,0,47.43,11.65,52.73,34.96h-139.13Z"/>
    <path class="cls-1" d="M1109.72,54.68c-21.81,8.63-40.18,25.16-51.01,45.93-.04.03-.49-.25-.59-.35-.98-1.11-2.31-3.88-3.29-5.31-2.61-3.8-6.34-8.49-9.72-11.6-2.25-2.07-3.54-3.19-6.63-1.86-3.06,1.32-6.24,4.61-6.57,8.05-.27,2.8,2.24,4.08,3.94,5.65,8.48,7.85,17.38,19.41,22.85,29.62.13.24.22.47.2.74.19,0,.35.03.52-.08.24-.15,1.22-3.15,1.46-3.7,10.03-24.03,27.25-48.87,47.48-65.36.59-.48,1.3-1.03,1.97-1.38l-.59-.35Z"/>
  </g>
</svg>