<?xml version="1.0" encoding="UTF-8"?>
<svg id="Camada_1" data-name="Camada 1" xmlns="http://www.w3.org/2000/svg" viewBox="0 0 1080 1080">
  <defs>
    <style>
      .cls-1 {
        fill: #f57c00;
      }

      .cls-2 {
        fill: none;
      }

      .cls-3 {
        fill: #00577a;
      }
    </style>
  </defs>
  <path class="cls-2" d="M595.25,448.19h-96.83c-86.37,0-137.21,33.63-152.5,100.88h401.5c-15.3-67.25-66.02-100.88-152.16-100.88Z"/>
  <path class="cls-2" d="M560.69,684.7c0-21.59-8.21-37.06-24.63-46.39-16.42-9.33-37.34-14-62.76-14h-130.67c8.96,76.42,56.22,116.55,141.7,120.44,20.49-1.18,37.75-5.71,51.73-13.66,16.42-9.33,24.63-24.8,24.63-46.39Z"/>
  <path class="cls-2" d="M196.48,461.85c-14.06,9.11-21.09,22.33-21.09,39.64s7.03,30.59,21.09,39.81c14.05,9.23,32.67,13.83,55.84,13.83h22.28c3.92-30.13,12.33-56.35,25.27-78.61,5.97-10.28,12.75-19.72,20.32-28.34h-67.87c-23.17,0-41.78,4.56-55.84,13.66Z"/>
  <path class="cls-3" d="M320.18,745.09H123.77v67.48h342.79c4.99,0,9.88-.16,14.73-.39-38.76-1.76-72.98-9.62-102.65-23.57-23.04-10.83-42.52-25.35-58.46-43.52Z"/>
  <path class="cls-3" d="M342.64,624.31h130.67c25.41,0,46.33,4.67,62.76,14,16.42,9.33,24.63,24.8,24.63,46.39s-8.21,37.06-24.63,46.39c-13.98,7.95-31.24,12.47-51.73,13.66,4.59.21,9.27.34,14.08.34h118.68c8.49-16.54,12.76-36.66,12.76-60.39,0-27.53-5.64-50.25-16.9-68.15h-271.1c.21,2.63.47,5.21.77,7.76Z"/>
  <path class="cls-3" d="M274.6,555.14h-22.28c-23.17,0-41.78-4.61-55.84-13.83-14.06-9.22-21.09-22.49-21.09-39.81s7.03-30.53,21.09-39.64c14.05-9.11,32.67-13.66,55.84-13.66h67.87c15.95-18.17,35.43-32.69,58.46-43.52,33.96-15.97,73.89-23.96,119.77-23.96h-237.33c-29.24,0-55.56,3.77-78.95,11.3-23.4,7.54-41.89,20.13-55.5,37.79-13.61,17.66-20.41,41.56-20.41,71.7s6.8,54.21,20.41,72.2c13.61,18,32.1,30.93,55.5,38.8,23.39,7.88,49.71,11.81,78.95,11.81h12.05c-.73-8.91-1.11-18.12-1.11-27.67,0-14.58.87-28.4,2.57-41.5Z"/>
  <path class="cls-3" d="M612.65,380.71h-17.4c5.9,0,11.7.14,17.4.4v-.4Z"/>
  <path class="cls-3" d="M715.19,404.66c-29.52-13.92-63.71-21.78-102.54-23.56-5.7-.26-11.5-.4-17.4-.4h-96.83c-45.89,0-85.81,7.99-119.77,23.96-23.04,10.83-42.51,25.35-58.46,43.52-7.57,8.62-14.35,18.06-20.32,28.34-12.93,22.27-21.35,48.48-25.27,78.61-1.7,13.09-2.57,26.92-2.57,41.5,0,9.54.38,18.76,1.11,27.67,2.95,36.02,11.85,66.84,26.72,92.45,5.97,10.28,12.75,19.72,20.32,28.34,15.95,18.18,35.43,32.69,58.46,43.52,29.66,13.95,63.88,21.81,102.65,23.57,5.61.26,11.32.39,17.13.39h295.56v-67.48h-295.56c-4.81,0-9.49-.14-14.08-.34-85.48-3.9-132.74-44.03-141.7-120.44-.3-2.55-.56-5.13-.77-7.76h479.77v-19.91c0-48.13-9.28-88.17-27.84-120.11-18.55-31.94-44.76-55.89-78.61-71.86ZM345.92,549.07c15.29-67.25,66.13-100.88,152.5-100.88h96.83c86.15,0,136.87,33.63,152.16,100.88h-401.5Z"/>
  <path class="cls-1" d="M972.07,267.43c-62.95,24.89-115.95,72.61-147.22,132.55-.13.1-1.43-.72-1.7-1.02-2.84-3.21-6.67-11.19-9.51-15.31-7.53-10.97-18.3-24.51-28.06-33.47-6.5-5.96-10.22-9.22-19.14-5.38-8.84,3.81-18.01,13.31-18.97,23.23-.78,8.07,6.45,11.76,11.38,16.32,24.48,22.66,50.15,56.03,65.93,85.47.37.69.62,1.36.58,2.15.55.02,1,.09,1.51-.23.71-.45,3.53-9.09,4.2-10.69,28.94-69.34,78.64-141.03,137.01-188.61,1.7-1.38,3.76-2.97,5.69-3.99l-1.71-1Z"/>
</svg>