<?xml version="1.0" encoding="UTF-8"?>
<svg id="Camada_1" data-name="Camada 1" xmlns="http://www.w3.org/2000/svg" viewBox="0 0 1080 1080">
  <defs>
    <style>
      .cls-1 {
        fill: #fff;
      }

      .cls-2 {
        fill: #f57c00;
      }

      .cls-3 {
        fill: #00577a;
      }
    </style>
  </defs>
  <rect class="cls-3" x="65.07" y="65.07" width="949.87" height="949.87" rx="180.61" ry="180.61"/>
  <g>
    <path class="cls-1" d="M397.34,687.32h-194.91v66.96h340.18c4.95,0,9.81-.16,14.62-.38-38.47-1.75-72.43-9.54-101.87-23.39-22.86-10.75-42.19-25.15-58.02-43.19Z"/>
    <path class="cls-1" d="M419.63,567.46h129.68c25.22,0,45.98,4.63,62.28,13.9,16.29,9.26,24.44,24.61,24.44,46.04s-8.15,36.78-24.44,46.04c-13.87,7.88-31,12.38-51.33,13.55,4.56.21,9.2.34,13.97.34h117.78c8.43-16.41,12.66-36.38,12.66-59.93,0-27.32-5.59-49.87-16.77-67.63h-269.03c.21,2.61.47,5.17.77,7.7Z"/>
    <g>
      <path class="cls-1" d="M352.1,498.82h-22.11c-22.99,0-41.47-4.57-55.41-13.73-13.95-9.15-20.93-22.32-20.93-39.51s6.98-30.3,20.93-39.34c13.94-9.04,32.42-13.56,55.41-13.56h67.35c15.83-18.04,35.16-32.44,58.02-43.19,33.7-15.85,73.33-23.77,118.86-23.77h-235.52c-29.02,0-55.13,3.74-78.35,11.22-23.22,7.48-41.57,19.98-55.08,37.5-13.51,17.52-20.26,41.24-20.26,71.15s6.75,53.8,20.26,71.65c13.5,17.86,31.86,30.69,55.08,38.5,23.21,7.82,49.33,11.72,78.35,11.72h11.96c-.72-8.84-1.1-17.98-1.1-27.46,0-14.47.86-28.19,2.55-41.18Z"/>
      <path class="cls-1" d="M789.35,349.49c-29.3-13.82-63.22-21.61-101.76-23.38-5.66-.26-11.41-.39-17.27-.39h-96.09c-45.54,0-85.16,7.93-118.86,23.77-22.86,10.75-42.19,25.16-58.02,43.19-7.51,8.56-14.24,17.93-20.17,28.13-12.84,22.1-21.18,48.11-25.07,78.01-1.69,12.99-2.55,26.71-2.55,41.18,0,9.47.38,18.62,1.1,27.46,2.93,35.74,11.76,66.33,26.52,91.74,5.93,10.2,12.65,19.57,20.16,28.13,15.83,18.04,35.16,32.44,58.02,43.19,29.44,13.85,63.4,21.64,101.87,23.39,5.57.25,11.24.38,17,.38h293.3v-66.96h-293.3c-4.78,0-9.41-.13-13.97-.34-84.83-3.87-131.73-43.69-140.62-119.52-.3-2.53-.55-5.09-.77-7.7h476.12v-19.75c0-47.76-9.21-87.5-27.62-119.2-18.41-31.69-44.42-55.46-78.01-71.32ZM422.88,492.79c15.18-66.74,65.63-100.11,151.34-100.11h96.09c85.49,0,135.82,33.37,151.01,100.11h-398.44Z"/>
    </g>
  </g>
  <path class="cls-2" d="M1060.83,65.07c-82.46,32.61-151.89,95.11-192.84,173.63-.17.13-1.87-.94-2.23-1.34-3.72-4.21-8.74-14.66-12.45-20.06-9.86-14.37-23.97-32.11-36.76-43.85-8.51-7.81-13.38-12.08-25.07-7.05-11.58,4.99-23.6,17.44-24.85,30.42-1.02,10.57,8.45,15.41,14.9,21.37,32.07,29.68,65.69,73.39,86.37,111.96.48.9.82,1.78.76,2.82.72.03,1.31.12,1.97-.3.92-.58,4.63-11.9,5.5-14,37.91-90.83,103.02-184.74,179.47-247.07,2.22-1.81,4.93-3.9,7.46-5.23l-2.23-1.31Z"/>
</svg>